<svg width="131" height="42" viewBox="0 0 131 42" fill="none" xmlns="http://www.w3.org/2000/svg">
<path d="M40.5 1H90.5" stroke="white" stroke-width="1.5" stroke-linecap="round"/>
<path d="M1.8 30V13.2H15.84V16.872H6.48V19.584H10.824C12.872 19.584 14.432 20.016 15.504 20.88C16.592 21.744 17.136 22.992 17.136 24.624C17.136 26.304 16.528 27.624 15.312 28.584C14.096 29.528 12.392 30 10.2 30H1.8ZM6.48 26.592H9.888C10.672 26.592 11.272 26.432 11.688 26.112C12.12 25.792 12.336 25.336 12.336 24.744C12.336 23.56 11.52 22.968 9.888 22.968H6.48V26.592ZM21.4673 34.872C20.7793 34.872 20.0833 34.76 19.3793 34.536C18.6913 34.328 18.1313 34.048 17.6993 33.696L19.2833 30.504C19.5553 30.744 19.8673 30.928 20.2193 31.056C20.5873 31.2 20.9473 31.272 21.2993 31.272C21.7953 31.272 22.1873 31.16 22.4753 30.936C22.7633 30.712 23.0113 30.36 23.2193 29.88L23.8193 28.368L24.1793 27.912L28.5953 16.992H32.9393L27.3233 30.528C26.8753 31.648 26.3553 32.52 25.7633 33.144C25.1873 33.784 24.5393 34.232 23.8193 34.488C23.1153 34.744 22.3313 34.872 21.4673 34.872ZM23.2433 30.552L17.5072 16.992H22.1873L26.4113 27.504L23.2433 30.552ZM34.4188 30V16.992H38.9548V26.352H43.1788V16.992H47.7388V30H34.4188ZM45.3148 32.688V29.976L46.3228 30H43.1788V26.352H49.5388V32.688H45.3148ZM58.2008 30.216C56.6648 30.216 55.3208 29.928 54.1688 29.352C53.0328 28.76 52.1448 27.96 51.5048 26.952C50.8808 25.928 50.5688 24.768 50.5688 23.472C50.5688 22.176 50.8728 21.024 51.4808 20.016C52.1048 18.992 52.9608 18.2 54.0488 17.64C55.1368 17.064 56.3608 16.776 57.7208 16.776C59.0008 16.776 60.1688 17.04 61.2248 17.568C62.2808 18.08 63.1208 18.84 63.7448 19.848C64.3688 20.856 64.6808 22.08 64.6808 23.52C64.6808 23.68 64.6728 23.864 64.6568 24.072C64.6408 24.28 64.6248 24.472 64.6088 24.648H54.3128V22.248H62.1848L60.4568 22.92C60.4728 22.328 60.3608 21.816 60.1208 21.384C59.8968 20.952 59.5768 20.616 59.1608 20.376C58.7608 20.136 58.2888 20.016 57.7448 20.016C57.2008 20.016 56.7208 20.136 56.3047 20.376C55.9048 20.616 55.5928 20.96 55.3688 21.408C55.1448 21.84 55.0328 22.352 55.0328 22.944V23.64C55.0328 24.28 55.1608 24.832 55.4168 25.296C55.6888 25.76 56.0728 26.12 56.5688 26.376C57.0648 26.616 57.6568 26.736 58.3448 26.736C58.9848 26.736 59.5288 26.648 59.9768 26.472C60.4408 26.28 60.8968 25.992 61.3448 25.608L63.7448 28.104C63.1208 28.792 62.3528 29.32 61.4408 29.688C60.5288 30.04 59.4488 30.216 58.2008 30.216ZM67.0907 30V16.992H74.0747C75.7547 16.992 77.0667 17.288 78.0107 17.88C78.9547 18.456 79.4267 19.288 79.4267 20.376C79.4267 21.416 78.9867 22.248 78.1067 22.872C77.2427 23.48 76.0747 23.784 74.6027 23.784L75.0107 22.824C76.5947 22.824 77.7867 23.12 78.5867 23.712C79.4027 24.288 79.8107 25.136 79.8107 26.256C79.8107 27.408 79.3627 28.32 78.4667 28.992C77.5867 29.664 76.2347 30 74.4107 30H67.0907ZM71.1707 27.048H74.0027C74.5627 27.048 74.9787 26.952 75.2507 26.76C75.5227 26.552 75.6587 26.248 75.6587 25.848C75.6587 25.432 75.5227 25.128 75.2507 24.936C74.9947 24.744 74.5947 24.648 74.0507 24.648H71.1707V27.048ZM71.1707 22.224H73.6667C74.2107 22.224 74.6107 22.128 74.8667 21.936C75.1227 21.728 75.2507 21.432 75.2507 21.048C75.2507 20.664 75.1227 20.384 74.8667 20.208C74.6107 20.016 74.2107 19.92 73.6667 19.92H71.1707V22.224ZM82.1141 30V16.992H86.6501V23.808L92.0981 16.992H96.2981V30H91.7381V23.16L86.3381 30H82.1141ZM107.596 25.2C107.148 25.472 106.628 25.696 106.036 25.872C105.444 26.032 104.756 26.112 103.972 26.112C102.164 26.112 100.796 25.712 99.8681 24.912C98.9561 24.096 98.5001 22.8 98.5001 21.024V16.992H103.06V20.712C103.06 21.448 103.228 21.968 103.564 22.272C103.9 22.576 104.388 22.728 105.028 22.728C105.524 22.728 105.98 22.672 106.396 22.56C106.828 22.432 107.22 22.264 107.572 22.056L107.596 25.2ZM107.284 30V16.992H111.82V30H107.284ZM114.903 30V16.992H119.439V23.808L124.887 16.992H129.087V30H124.527V23.16L119.127 30H114.903Z" fill="white"/>
<path d="M40.5 41H90.5" stroke="white" stroke-width="1.5" stroke-linecap="round"/>
</svg>
